<svg xmlns="http://www.w3.org/2000/svg" viewBox="0 0 2767.86 490.88"><defs><style>.cls-1{fill:#fff;}</style></defs><g id="Layer_2" data-name="Layer 2"><g id="Layer_2-2" data-name="Layer 2"><path class="cls-1" d="M392.43,154.08c10.23-14.73,23.09-23.16,39-26.44,23.39-4.83,46.19-3.52,66.78,10,16.8,11,24.44,28,28.61,46.89a144.24,144.24,0,0,1,3.32,31.22c0,45.8-.06,91.6.11,137.4,0,4.25-1.14,5.14-5.21,5.09q-27.48-.35-55,0c-3.58,0-4.35-1-4.34-4.44q.19-62.94,0-125.9c0-8.65-.5-17.29-2.66-25.75-3.93-15.32-12.64-23.47-26.76-25-17.24-1.83-29.84,4.66-36.67,19-4.44,9.32-6.17,19.34-6.64,29.51-1.33,28.79-.37,57.61-.59,86.41-.11,14-.12,28,.05,42,0,3.24-.83,4.18-4.13,4.15q-28.23-.23-56.47,0c-3.46,0-4-1.17-4-4.23q.1-108.67,0-217.34c0-3.21.77-4.18,4.09-4.15,18.65.17,37.31.21,56,0,4-.05,4.71,1.39,4.53,4.88C392.24,142.39,392.43,147.49,392.43,154.08Z"/><path class="cls-1" d="M668.39,259.33c12.38-33.94,24.47-67,36.54-100.12,2.85-7.8,5.79-15.58,8.47-23.44.84-2.46,2-3.31,4.64-3.3,21.15.1,42.31.14,63.47,0,4.45,0,3,1.81,2,4.06q-42,92.91-83.86,185.84c-5.54,12.27-11.19,24.48-16.58,36.81-1.19,2.71-2.62,3.69-5.58,3.62-8.16-.21-16.33-.32-24.48,0-3.78.17-5.52-1.13-7-4.48q-31.32-70.09-62.87-140.09c-12.18-27.14-24.25-54.32-36.63-81.37-1.89-4.15-.91-4.44,3-4.41q30.74.21,61.47,0c3.49,0,5.17,1,6.54,4.29q24,58.32,48.33,116.49C666.47,254.9,667.2,256.56,668.39,259.33Z"/><path class="cls-1" d="M981.93,365.48Q936.17,364.55,905,331c-2.34-2.52-2.16-4.06-.12-6.61,7.69-9.62,15.12-19.44,22.64-29.2,4.33-5.62,4.32-5.63,9.21-.75,8.33,8.32,17.57,15.3,28.93,19,7.57,2.45,15.26,3.56,23,.88,8.92-3.07,14.58-9.09,16.21-18.49,1.7-9.77-2.09-17.21-10.11-22.69S977.51,264.7,968.63,261c-6.13-2.57-12.26-5.14-18.26-8-22.47-10.68-35-28.09-35.11-53.4,0-22.06,6.52-41.64,23.37-56.81C951,131.63,965.84,126,982.28,125.44c24.08-.88,47,3.87,68,16.29,10.24,6.07,10.16,6.27,3.33,15.56-6.42,8.71-13,17.27-19.28,26.1-1.83,2.59-2.87,2.24-4.86.48-8.16-7.2-17.36-12.23-28.43-13.28a22.48,22.48,0,0,0-17.55,5.59c-8.69,7.55-8.48,19.1.42,26.35,6,4.91,13.22,7.63,20.33,10.45,10,4,20.16,7.72,29.76,12.73,27,14.09,38.8,36.65,35.39,68.69-3.93,36.91-30.41,63.32-68.48,69.49A112.92,112.92,0,0,1,981.93,365.48Z"/><path class="cls-1" d="M868,245.45c0,36-.08,71.95.1,107.92,0,4-1.16,4.85-4.95,4.81q-27.48-.3-55,0c-3.68,0-5.08-.61-5.07-4.79q.21-108.17,0-216.33c0-3.28.55-4.64,4.26-4.6q28.25.28,56.47,0c3.78,0,4.19,1.4,4.18,4.61Q867.86,191.25,868,245.45Z"/><path class="cls-1" d="M215,245.5c0-36.14.06-72.27-.09-108.4,0-3.69.82-4.71,4.62-4.66,18.48.22,37,.18,55.45,0,3.36,0,4.56.7,4.56,4.34q-.16,108.63,0,217.28c0,3.38-1.07,4.09-4.21,4.06-18.48-.13-37-.16-55.46,0-3.75,0-5-.72-5-4.78C215.06,317.42,215,281.46,215,245.5Z"/><path class="cls-1" d="M1444.05,270.34c-7.5,26.2-14.78,51.68-22.08,77.16-2.29,8-4.85,15.92-6.81,24-.83,3.39-2.41,4.31-5.52,3.93a13.27,13.27,0,0,0-4,0c-3.66.67-4.79-1.25-5.66-4.43q-13.1-47.87-26.48-95.65c-.32-1.13,0-2.77-2.34-3.45-.38,5.14-.73,10.13-1.11,15.11-2.13,28-4.3,56.07-6.34,84.11-.24,3.28-1.28,4.43-4.78,4.37-9.71-.17-9.88,0-9.06-9.77,3.06-36,6.27-71.93,9.31-107.91.27-3.27,1.19-4.67,4.74-4.41a108.26,108.26,0,0,0,13.48,0c2.86-.14,4,.8,4.75,3.64,8.18,30.85,17.87,61.3,25.09,92.42a6.6,6.6,0,0,0,.94,1.46c7.76-31.37,17.3-61.89,25.59-92.75,1-3.77,2.53-5.25,6.4-4.78a68.66,68.66,0,0,0,8.49.07c8.1,0,8.22,0,8.9,7.8,3.15,36.3,6.16,72.61,9.42,108.9.37,4.12-.43,5.46-4.8,5.32-9.77-.31-9.64-.08-10.4-10.08q-3.3-43.79-6.81-87.56C1444.81,275.62,1445.45,273.27,1444.05,270.34Z"/><path class="cls-1" d="M1906.39,340.38c-8.6-3.72-14.93-9.25-17.54-18.18-5.5-18.74,8.5-36.28,29.45-37.06a49.28,49.28,0,0,1,18.13,2.85c7.3,2.54,14.59,3.39,21.63-.88,2.92-1.76,3.79,1.13,5.13,2.4,6.19,5.95,6,6.52-2.26,9.42a25.15,25.15,0,0,1-5.84,1.13c-1.95.19-3.94,0-6.41,0,5.45,9.41,5.5,18.8.48,28.1-4.41,8.18-11.2,13.2-20.6,13.78-6.36.39-11.94,2.65-17.29,5.74-2.15,1.23-4.6,2.74-3.77,5.72s3.65,3.2,6.14,3.26c6.83.18,13.66,0,20.48.26,14.85.64,24,8.63,25.32,21.73,1.34,13.62-6.32,24.55-20.29,27.89a67.44,67.44,0,0,1-38.37-1.75c-11.88-4.12-17-13.62-14.27-24.94.65-2.65,1.62-4,4.57-4,3.47,0,6.94-.49,10.48-.78.48,1.93-.8,3.23-1.2,4.74-1.62,6.16.87,11.92,6.74,14.41a39.82,39.82,0,0,0,27.35,1.44c7.21-2.11,10.23-7.44,9.59-15.47-.51-6.41-4.42-10.19-11.89-11.25-7.62-1.08-15.29-.39-22.94-.53a27.33,27.33,0,0,1-9.33-1.34,12.3,12.3,0,0,1-3.58-21.35C1899.16,343.34,1902.79,342.43,1906.39,340.38Zm13.62-8.46q16.08.3,16.41-17.29c.21-11.93-4.77-17.48-15.81-17.65s-16.83,5.75-16.95,17.4C1903.55,325.63,1909.23,331.73,1920,331.92Z"/><path class="cls-1" d="M1724.66,340.42c-8.72-3.77-15.33-9.45-17.77-18.86-4.82-18.62,8.91-35.59,29.32-36.41a50.06,50.06,0,0,1,18.64,2.89c7.15,2.48,14.31,3.34,21.18-.82,2.69-1.63,3.57.7,4.85,1.93,6.52,6.31,6.18,7.39-2.72,10.18-3.58,1.12-7.22.67-11.36.66,4.67,7.83,5.51,15.87,2.41,24.1-4,10.57-11.36,17.13-22.91,17.94-6.37.44-11.93,2.76-17.24,6-2,1.19-4.17,2.64-3.33,5.49s3.37,3.13,5.67,3.2c7.33.21,14.68-.09,22,.31,15.34.83,24.71,10.75,24.28,25.27-.37,12.43-7.43,21.28-20.42,24.35a67.21,67.21,0,0,1-38.4-1.84c-11.86-4.19-16.91-13.65-14.07-25.09.59-2.38,1.44-3.8,4.22-3.83,3.64,0,7.28-.49,11.13-.79-.64,2.16-1.31,4-1.73,6a11.06,11.06,0,0,0,6.21,12.84,39.48,39.48,0,0,0,28.26,1.73c6.88-2,10.2-7.81,9.49-15.13-.65-6.7-4.26-10.35-11.71-11.48-7.79-1.19-15.64-.41-23.46-.59a28.56,28.56,0,0,1-8.85-1.23c-4.71-1.63-7.58-4.8-8.3-9.67-.77-5.22.91-9.64,5.48-12.49C1718.32,343.27,1721.43,342,1724.66,340.42Zm-2.77-25.57c0,11.14,5.85,17,16.79,17.08,10.51,0,16-6.1,16-17.75s-5.22-17.25-16.36-17.21C1727.43,297,1721.85,303.08,1721.89,314.85Z"/><path class="cls-1" d="M99.08,350.92a38.42,38.42,0,0,1,38.66,38.62c-.15,20.69-17.4,37.69-38.48,37.94C78.41,427.73,61,410.15,61,389A38.08,38.08,0,0,1,99.08,350.92Z"/><path class="cls-1" d="M835.16,76.18a38.07,38.07,0,1,1,38.57-37.87C873.72,59.65,856.83,76.24,835.16,76.18Z"/><path class="cls-1" d="M247.06,76.14C225.63,76.14,209,59.62,209,38.29S225.86.18,247.35,0c18.76-.16,38.25,14.54,38.13,38.07C285.35,64.28,263.91,77.16,247.06,76.14Z"/><path class="cls-1" d="M76.21,244.72A38.11,38.11,0,1,1,0,244.64c0-21.44,17.34-38.93,39-38.28C61.65,207.05,76.67,225.16,76.21,244.72Z"/><path class="cls-1" d="M285.25,452.62c.06,21.17-16.5,38.19-37.2,38.26-22,.06-39-16.54-39.06-38a37.47,37.47,0,0,1,37.81-38.06C268.83,414.74,285.19,430.85,285.25,452.62Z"/><path class="cls-1" d="M101,59.75c21.86,0,38.18,16.3,38.15,38.13a38.12,38.12,0,1,1-76.24-.39C62.94,76.05,79.39,59.76,101,59.75Z"/><path class="cls-1" d="M1776.1,125.43V108.67c0-9.49.08-19,0-28.47,0-2.75.44-3.73,3.58-3.33,10.71,1.36,10.73,1.21,10.73,12q0,47.19,0,94.39c0,7.48.24,15,2.5,22.73h-6.11c-8.37,0-8.37,0-10.62-8.06-6.58,7-14.62,9.53-23.9,9.29-14-.36-24.63-6.24-30.08-19.17-7.38-17.53-7.46-35.5,1-52.68,8.86-17.89,28.89-24.43,45-15.43A94.5,94.5,0,0,1,1776.1,125.43Zm0,35.1c0-6.49-.27-13,.09-19.45.24-4.26-1.65-6.84-4.8-9.1-15.09-10.83-33.61-3.28-37.44,15.43a80.61,80.61,0,0,0-.28,29.26c2.34,14.33,11.82,20.81,26.12,18.22,10.79-2,16.31-8.52,16.31-19.39Z"/><path class="cls-1" d="M2299.13,297.08c8.31-8.66,17.71-13.13,29.13-11.72,13.93,1.72,22.45,10.2,26.62,23.14a73.52,73.52,0,0,1,1.36,40c-6.62,27.9-33.32,38.32-56,20.4-1.65,1-.87,2.68-.88,4-.08,10.83-.21,21.66.05,32.48.08,3.39-1.06,4.51-4.22,5.12-9.85,1.92-9.82,2-9.82-8.13q0-45.48,0-91c0-7.16,0-14.34-1.47-21.38-.53-2.48.25-3.3,2.55-3.45,3.74-.25,8.4-3.32,10.82-1C2299.37,287.65,2298.56,292.68,2299.13,297.08Zm.18,35.05c0,3.66,0,4.1-.08,9.8,0,1.34-.08,2.69-.23,4-1.09,9.65,4.91,14.37,12.78,17.94,12.2,5.56,25.35-.18,29-13.05,3.57-12.42,3-25.06.06-37.54s-12.9-18.15-25.39-14.49c-4.89,1.44-9,4.23-12.77,7.56a9.53,9.53,0,0,0-3.49,8.28C2299.5,320.46,2299.31,326.3,2299.31,332.13Z"/><path class="cls-1" d="M2114.69,314.33c0-18.81.09-37.62-.07-56.43,0-3.39.73-4.54,4.34-4.5q29,.27,57.95,0c3.67,0,4.46,1,3.89,4.51-1.3,8-1.15,8-9.14,8-12.66,0-25.32.12-38-.07-3.25-.05-4.19.82-4.12,4.1q.32,15.72,0,31.46c-.07,3.37,1,4.15,4.22,4.09,11.15-.18,22.31.06,33.47-.14,3.34-.06,4.19,1,4.16,4.22-.1,8.49.06,8.49-8.26,8.49-9.82,0-19.65.15-29.47-.08-3.37-.08-4.16,1-4.12,4.23q.27,18.22,0,36.45c-.06,3.37,1,4.16,4.21,4.12,15-.16,30,.05,45-.15,3.52-.05,4.46.88,4.38,4.38-.21,8.33,0,8.34-8.42,8.34-18.48,0-37-.12-55.45.09-3.8,0-4.69-1-4.65-4.71C2114.8,352,2114.69,333.14,2114.69,314.33Z"/><path class="cls-1" d="M1516.59,199.35c-1.07,1.58-2,3-2.93,4.31-4.6,6.51-7.28,6.57-12.57.25a21.43,21.43,0,0,1-3.59-6.41c-1.76.29-2.7,1.53-3.77,2.52-8.73,8-19.09,9.62-30.25,7.56-10.27-1.89-17.22-7.74-19.47-18.19-2.6-12.13,1.77-23.14,11.58-29.71s21.27-8.17,32.85-8.44c8.15-.19,8.16-.07,8-8.2-.26-12.37-5.56-17.2-17.87-16a45.88,45.88,0,0,0-22.19,8.25c-2.29,1.62-3.3,1.57-4.93-.77-5.42-7.78-5.55-7.77,2.91-12,11.56-5.73,23.66-8.84,36.65-6.64,11.36,1.93,18.3,9.55,19,21.1.84,14.46-.44,28.92-.37,43.38C1509.63,187.47,1508.48,195.09,1516.59,199.35Zm-20.69-26.26c0-3.15,0-6.3,0-9.45,0-1.47-.21-2.59-2.07-2.63-8.82-.23-17.66-.44-25.73,3.91s-11.63,16.27-7.47,25.26c3.26,7,12,9.83,21.16,6.24C1492.3,192.29,1497.73,184.83,1495.9,173.09Z"/><path class="cls-1" d="M1867.5,196.94c-7.92,8.18-17.19,12.27-28.67,11.27-12.29-1.08-20.77-6.66-23.76-16.5-3.58-11.75.28-24.15,9.91-31.23,10-7.35,21.7-8.89,33.63-9.23,8.32-.25,8.32-.08,8.27-8.34-.08-12-5.42-17-17.48-15.89a44.55,44.55,0,0,0-22.25,8.11c-2.92,2.1-3.89,1.3-5.57-1.2-4.84-7.18-5-7.17,3-11.2,11.7-5.92,24-9,37.14-6.78,10.39,1.74,17,8.39,18.47,18.83,1.67,11.94.07,23.92,0,35.88,0,6.65-.66,13.3.41,19.93.48,2.93,1.62,5.53,4.17,7.08,2.09,1.27,2.49,2.41.7,4.15a2.92,2.92,0,0,0-.29.4c-5.58,8.28-9.84,8.13-15.18-.55C1869.14,200.26,1868.45,198.75,1867.5,196.94Zm-1.08-24.08c0-2.82-.14-5.65,0-8.45.17-2.55-.64-3.45-3.31-3.49-6.83-.08-13.62,0-20.19,2.08-6,1.92-10.89,5.41-12.41,11.79-3.32,13.94,1.72,24.39,16.68,22.89,5.8-.58,10.47-3.6,14.74-7.6C1867.26,185.12,1865.86,178.85,1866.42,172.86Z"/><path class="cls-1" d="M1694,161.42c.11,9.14-1.25,18.26-.25,27.4.33,3.05.91,6.11,3.45,8,6.85,5.15-1.14,7.14-2.36,10.31-1.57,4.1-4.39.94-6.43-.24a10.52,10.52,0,0,1-5-5.44c-1.72-5.36-3.65-3.48-6.6-.93-10.69,9.27-23.1,10-35.58,5.08-16.72-6.59-19.1-31.63-4.5-43.83,10-8.37,22.2-10.1,34.64-10.55,9.54-.34,8.8-.17,9-9.63.2-9.89-6.71-15.87-17.36-14.66a49,49,0,0,0-22.69,8.32c-2.2,1.53-3.22,1.71-4.92-.73-5.43-7.78-5.56-7.7,2.83-11.93,11.4-5.73,23.34-8.79,36.16-6.76,12.13,1.91,19.15,9.8,19.57,22.12C1694.22,145.79,1694,153.61,1694,161.42Zm-14.11,11.76c0-3.15,0-6.3,0-9.46,0-1.12.21-2.56-1.48-2.62-10.49-.34-21.15-1-29.9,6.33-6.17,5.14-7.51,17.5-3.15,24.41,3.57,5.68,12.24,7.94,20.23,4.61C1673.31,193.24,1681.16,188.84,1679.89,173.18Z"/><path class="cls-1" d="M1861.94,331c0,9-1.1,17.92-.29,26.9.35,3.81,1.43,7.22,4.82,9.38,1.61,1,2.06,2,.64,3.51-.35.35-.53.86-.88,1.21-2,2.06-2.66,6.47-5.71,6.2-4-.36-7.43-3.41-9-7.18-1.84-4.34-3.14-4.31-6.57-1.28-10.74,9.46-23.24,10.22-36,5.13-15.24-6.1-18.67-28.68-6.6-41.46,7.9-8.38,18.34-11,29.24-12.26a80.79,80.79,0,0,1,12.92-.34c2.92.14,3.86-.77,3.62-3.57-.19-2.32,0-4.66,0-7-.16-9.18-5.09-14.2-14.33-14.08a45.82,45.82,0,0,0-25.23,8.26c-2.4,1.61-3.47,1.95-5.34-.74-5.27-7.6-5.41-7.47,2.75-11.65a62.82,62.82,0,0,1,34.15-7.19c12.91,1,21.21,9.25,21.79,22.2C1862.23,315,1861.94,323,1861.94,331Zm-14.06,11.58c0-3.15,0-6.31,0-9.47,0-1.37.06-2.63-1.92-2.74-9.72-.53-19.41-.5-27.89,5.11-7.17,4.75-9.5,16.73-5.26,24.78,3.31,6.29,11.55,8.63,20.23,5.73C1843.59,362.44,1847.71,355.88,1847.88,342.57Z"/><path class="cls-1" d="M1564,331.51a56,56,0,0,1-3.75,23.48c-5.92,14.7-18,22.72-34.25,22.71-16,0-28.18-7.8-33.84-22.47a67.35,67.35,0,0,1-1-46c5.21-16.15,17.93-25.08,34.56-25.07s29.81,9.48,35.19,25.23A62.39,62.39,0,0,1,1564,331.51Zm-15.94,1.67c.1-7.65-.29-14.79-2.31-21.72-3-10.1-10.82-15.86-21.09-15.58-10.46.3-17.33,5.81-19.78,16.31a77.45,77.45,0,0,0,1.37,39.44c2.58,9,9.81,14,19.45,14.28s16.61-4.47,19.91-13.52C1548,346,1548.28,339.39,1548.1,333.18Z"/><path class="cls-1" d="M2020.88,333.72c-8,0-16,.11-24-.07-2.88-.06-3.7.88-3.59,3.69.4,10.43,2.41,20.16,12.87,25.19,10.75,5.16,21.27,4,31.31-2.46,1.34-.85,3.14-4.57,4.82-.62,1.21,2.85,6.63,5.24,1.18,9.4-26.24,20-60.9,5.71-65.46-27.3-2.13-15.49-1.34-30.62,8.94-43.7,13.93-17.72,41.54-17.83,54.51-.16,5.94,8.09,6.39,17.65,6.84,27.14.42,8.88.32,8.88-8.45,8.89Zm-7.58-10.79h9.46c12.57,0,12.57,0,9.56-12.41-2.21-9.13-8.09-14.24-17-14.77-9.46-.56-15.92,3.57-19.29,12.45a45.33,45.33,0,0,0-2.43,11.14c-.3,2.69.19,3.8,3.23,3.66C2002.33,322.75,2007.82,322.93,2013.3,322.93Z"/><path class="cls-1" d="M2419.38,333.72c-7.5,0-15,.31-22.49-.12-4.54-.26-5.22,1.53-4.93,5.41.76,10.13,3.32,19.24,13.51,23.8,10.7,4.79,21,3.55,30.84-2.85,1.35-.88,3.14-4.43,4.72-.41,1.14,2.88,6.59,5.2,1.13,9.33-24.73,18.71-58,7.13-64.52-23-3.7-17.05-3.26-33.87,8.42-48.45,8.78-11,20.51-14.5,33.91-12.17,11.87,2.06,20.21,9,24.29,20.55,2.95,8.3,2.49,17.06,3,25.67.18,2.69-1.79,2.26-3.41,2.26Zm-7.49-10.79h9.47c12.44,0,12.44,0,9.61-12.39-2-8.83-7.44-13.83-15.94-14.69-9.53-1-16.28,2.89-19.94,11.43-1.72,4-2.2,8.31-2.89,12.57-.4,2.5.26,3.19,2.74,3.13C2400.58,322.83,2406.24,322.93,2411.89,322.93Z"/><path class="cls-1" d="M1362,145.48c.17,8.66.35,17.63,3.51,26.24,8.12,22.11,31.77,30.81,52.27,19.26,1.58-.89,3.3-3.52,5-2a32.76,32.76,0,0,1,6.8,8.54c.78,1.37-1.76,2-3,2.67-33.73,18-70,4.22-78.15-33.49-4.86-22.43-3.35-44.15,10.25-63.59,15-21.39,43.48-26.86,65.67-13.16,3,1.85,4.36,3.37,1.07,6a2.73,2.73,0,0,0-.65.75c-2.56,5.11-5.45,4.9-10.36,2.18-18.92-10.48-39.1-2.85-47.53,17.38C1363.11,125.54,1362.56,135.34,1362,145.48Z"/><path class="cls-1" d="M1553.48,128.51a73.16,73.16,0,0,1,10.45-8c6-3.53,12.44-5.48,19.52-4.75,12.87,1.33,21.18,9.75,21.36,22.7.29,21.49,0,43,.14,64.46,0,2.41-.71,3-3.08,3.08-11.14.41-11.1.5-11.15-10.48-.07-18.15.08-36.31-.4-54.45-.29-10.77-7.18-15.29-17.61-12.39a50.37,50.37,0,0,0-7,2.61c-8.52,3.81-13.35,9.11-12.63,19.8,1.12,16.58.19,33.3.38,50,0,3.75-.71,5.15-4.82,5-8.9-.32-8.91-.07-8.91-8.77q0-29,0-58c0-5.86-.37-11.71-2.41-17.2-1.07-2.87.17-3.36,2.34-4,11.3-3.5,11.85-3.17,13.35,8.65C1553.09,127.21,1553.25,127.63,1553.48,128.51Z"/><path class="cls-1" d="M2618.33,283.49A62.83,62.83,0,0,1,2643,289c2.59,1.15,2.85,2.32,1.6,4.81-3.56,7.1-3.44,7.16-10.8,4.25-5.94-2.35-12-4-18.48-3-5.82.84-10.36,3.55-12.44,9.38-2.64,7.43.3,13.95,7.81,16.25,5.71,1.75,11.66,2.68,17.47,4.1,15.07,3.68,21.83,11.26,21.82,24.32,0,13.93-8.48,24.59-22.61,27.74s-27.72.21-40.63-6.08c-1.91-.92-2.67-1.85-1.55-4.18,3.65-7.63,3.55-7.73,11.28-4.25a49.29,49.29,0,0,0,23.26,4.62c7.83-.42,13.71-4.89,15.17-11.43,1.7-7.67-1.23-13.77-8.62-16.32-5.31-1.84-10.93-2.8-16.44-4-15.46-3.51-22.85-12.15-22.2-26.05.62-13.3,10.73-23.37,25.25-25.11C2615,283.68,2617.21,283.58,2618.33,283.49Z"/><path class="cls-1" d="M1962.56,208.81a73.06,73.06,0,0,1-29.21-7c-3-1.43-3.42-3-1.6-5.53a13.56,13.56,0,0,0,1.55-3.12c1.14-3.16,2.62-3.71,5.82-1.94,8.75,4.83,18.15,7.49,28.26,6.08,8.47-1.17,13.33-6.24,13.8-13.89.46-7.47-3.06-12.07-11.57-14.46-5.27-1.49-10.72-2.35-16-3.71-12.87-3.31-19.91-11.52-20.18-23.29-.27-12,6.92-22.06,18.91-25.81,12.93-4,25.29-1.52,37.33,3.86,2,.9,2.14,1.82,1.28,3.77-3.53,8-3.49,8.15-11.38,4.9a36.67,36.67,0,0,0-17-3.13c-6,.48-11,2.92-13.48,8.77-3.34,7.84.25,15.08,8.7,17.42,4.8,1.33,9.74,2.16,14.62,3.23,1.46.32,2.92.64,4.36,1.06,11.88,3.5,18.34,10.58,19.15,20.93,1,12.58-4.84,23-15.74,28.11A43.94,43.94,0,0,1,1962.56,208.81Z"/><path class="cls-1" d="M2196.56,287.56a6,6,0,0,1,1-.53c15.47-.83,15.46-.83,23.46,12.49l9.93,16.53c4.63-8,9.23-15.2,13.07-22.79,2.49-4.91,5.53-7.3,11.14-6.39,2.71.44,5.55.07,9.16.07l-21,31.56c-5.24,7.85-5.25,7.84.27,15.81l28.4,41.06c-5.8,0-10.82.05-15.85,0-2.3,0-2.74-2.21-3.67-3.66-7.08-11-14.08-22-21.52-33.69-6.33,9.94-12.73,19-18.07,28.71-3.73,6.79-8.26,10.2-16.06,8.73-1.73-.33-3.57-.05-6.34-.05,6.64-9.89,12.78-19.05,18.94-28.21,3.9-5.79,7.63-11.71,11.79-17.32,1.91-2.58,1.87-4.31,0-6.9C2212.93,311.34,2204.88,299.55,2196.56,287.56Z"/><path class="cls-1" d="M2552.62,261.71c-.47,7.43-.6,14.42-1.47,21.32-.48,3.81,1,4,4,4,5.82-.15,11.65-.05,17.69-.05-.29,3.11-1.91,5.49-2.72,8.13-.66,2.13-1.93,2.78-4.08,2.7-3.66-.15-7.35.18-11-.11-3.39-.27-4.55.64-4.5,4.28.2,17.16,0,34.32.11,51.48,0,12.22,4.64,15.87,16.58,13.39,1.47-.31,3.78-2.31,3.87,1.19.07,2.67,3.78,6-1.23,7.95a33.8,33.8,0,0,1-19.65,1.48c-9.27-2-13.33-7.58-13.36-17.75-.06-19.16-.14-38.32.09-57.47,0-3.87-1.05-5.08-4.7-4.52-1.3.21-2.67-.06-4,.06-2.29.2-3.48-.54-3.22-3a16.14,16.14,0,0,0,0-4c-.48-3.19.9-3.88,3.9-3.85,7.64.06,7.64-.09,8.06-7.54,0-.66,0-1.33.07-2C2538,263.38,2538,263.38,2552.62,261.71Z"/><path class="cls-1" d="M1654.11,331c0-9.65-.17-19.32.09-29,.09-3.53-.91-4.87-4.41-4.32-1.14.18-2.34-.1-3.49.05-2.88.38-3.94-.82-3.6-3.64a15.67,15.67,0,0,0,0-4c-.4-2.8,1-3.51,3.41-3.19.49.07,1-.06,1.5,0,4.85.85,7.49-.48,6.59-6.07-.3-1.91.35-4,.5-5.94.8-10.68.82-10.59,11.48-12.83,3.06-.64,4.14-.23,3.77,3.19-.67,6.11-.72,12.29-1.43,18.4-.34,2.93.73,3.34,3.2,3.28,5.16-.13,10.32-.06,15.49,0,.92,0,2.08-.44,2.72.52,1.2,1.8-4.06,10.18-6.42,10.23a106,106,0,0,1-11,0c-3.59-.3-4.8.58-4.74,4.52.26,17,.09,34,.12,50.95,0,12.53,4.54,16.21,16.8,13.58,1.89-.4,3.88-1.41,3.82,1.56,0,2.52,3.65,5.69-1.09,7.58a33.68,33.68,0,0,1-19.63,1.64c-9.31-1.94-13.51-7.45-13.66-17.52C1654,350.31,1654.11,340.65,1654.11,331Z"/><path class="cls-1" d="M1603.38,297.92c6.22-6.9,12.39-12.05,20.88-13.36.82-.12,1.64-.32,2.46-.37,5.51-.36,6.25.66,4.32,5.82-.29.78-.66,1.53-.87,2.33-1.26,4.85-3,7.83-9.38,7.85-10,0-17.34,9-17.4,19.38-.09,17-.14,33.95.07,50.92,0,3.86-.88,5.13-4.91,5-9.12-.27-9.1,0-9.13-9.17-.09-21.46-.17-42.92-.37-64.38a22.56,22.56,0,0,0-1.25-8.34c-2.09-5,.35-6,4.49-7,9.42-2.22,9.64-2.22,10.73,7.6C1603.11,295,1603.18,295.85,1603.38,297.92Z"/><path class="cls-1" d="M2486,298.13c6.05-7.12,12.51-12.36,21.38-13.63a20.29,20.29,0,0,1,4-.27c2.95.17,4.82,1.08,2.88,4.52a20.65,20.65,0,0,0-1.57,4.19c-1.31,4.41-2.71,7.29-8.82,7.22-10-.13-17.76,8.94-17.82,19-.09,17.3-.12,34.6.06,51.89,0,3.5-.92,4.47-4.42,4.43-9.61-.13-9.59,0-9.62-9.64-.06-21.12-.08-42.24-.28-63.35a28.23,28.23,0,0,0-1.49-9.8c-1.61-4.15.31-4.94,3.62-5.77,10.56-2.68,11.07-2.37,11.94,8.71C2485.89,296.22,2485.93,296.81,2486,298.13Z"/><path class="cls-1" d="M2758.92,270.47q-6.89,17.47-13.79,34.93c-.62,1.58-.69,3.5-3.34,3.63-2.81.14-4.09-.82-5.06-3.42-3.85-10.27-7.92-20.46-12-30.66-.53-1.34-.72-2.9-2.28-4.24a.3.3,0,0,0-.5.22c0,11.59-.11,22.77.07,33.94.06,3.19-.72,4.18-4.06,4.21s-4.06-1.23-4-4.32c.15-13.65.17-27.31,0-41a3.89,3.89,0,0,1,3.9-3.93c8.75,0,8.75-.12,11.89,7.91,3.63,9.27,7.27,18.53,11.34,28.91,4.08-10.24,7.78-19.46,11.43-28.69,3.52-8.9,3.5-8.83,12.78-8.11,1.91.15,2.56.63,2.56,2.58q-.11,22,0,44c0,4-2.85,2.12-4.58,2.45-2.31.45-3.58-.12-3.52-3,.18-10.16.07-20.33.07-30.49v-4.73C2759.8,270,2759.14,269.94,2758.92,270.47Z"/><path class="cls-1" d="M1925.87,99.46c0,11.21-9.74,25.67-20,29.43-3.9,1.43-3.46-3-5.14-4.54-1.5-1.39-1.36-2.64.67-3.84a19.24,19.24,0,0,0,8.88-11c.6-1.83.93-2.78-1.69-3.29-5.85-1.14-8.68-4.59-9.14-10.12a12.65,12.65,0,0,1,22.27-9.62A17.9,17.9,0,0,1,1925.87,99.46Z"/><path class="cls-1" d="M2680.82,288.21c0-5.83-.08-11.65,0-17.47.05-2.17-.58-3-2.8-2.83-2.49.18-5-.25-7.48.11-4.38.65-5.34-1.19-5-5.2.18-2.55,1.1-2.92,3.29-2.9,10.82.08,21.64.18,32.46-.05,3.7-.08,2.87,2.14,3,4.18.13,2.3.23,4.06-3.18,4-3.73-.05-8.42-.48-11.13.62a1.41,1.41,0,0,0-.85,1c-.82,3.47-.35,9.33-.35,13.41,0,9.17.14,17,.14,22.3,0,4.19-2,3.45-4.32,3.58s-4,0-3.86-3.29C2681,299.87,2680.82,294,2680.82,288.21Z"/></g></g></svg>